<?xml version="1.0" standalone="no"?><!DOCTYPE svg PUBLIC "-//W3C//DTD SVG 1.1//EN" "http://www.w3.org/Graphics/SVG/1.1/DTD/svg11.dtd"><svg t="1755873265581" class="icon" viewBox="0 0 1024 1024" version="1.1" xmlns="http://www.w3.org/2000/svg" p-id="6384" xmlns:xlink="http://www.w3.org/1999/xlink" width="200" height="200"><path d="M597.333333 938.666667H682.666667V341.333333a85.333333 85.333333 0 0 1 85.333333-85.333333H853.333333a85.333333 85.333333 0 0 1 85.333334 85.333333v597.333334h42.666666a42.666667 42.666667 0 0 1 0 85.333333H42.666667a42.666667 42.666667 0 0 1 0-85.333333H85.333333v-853.333334A85.333333 85.333333 0 0 1 170.666667 0h341.333333a85.333333 85.333333 0 0 1 85.333333 85.333333v853.333334zM170.666667 341.333333v85.333334h170.666666V341.333333H170.666667z m0 341.333334v85.333333h170.666666V682.666667H170.666667z m256-341.333334v85.333334H512V341.333333h-85.333333z m0 341.333334v85.333333H512V682.666667h-85.333333zM170.666667 170.666667v85.333333h170.666666V170.666667H170.666667z m0 341.333333v85.333333h170.666666V512H170.666667z m256-341.333333v85.333333H512V170.666667h-85.333333z m0 341.333333v85.333333H512V512h-85.333333z m341.333333-85.333333V512H853.333333v-85.333333h-85.333333z m0 170.666666V682.666667H853.333333v-85.333334h-85.333333z" fill="#350cdd" p-id="6385"></path></svg>