<?xml version="1.0" standalone="no"?><!DOCTYPE svg PUBLIC "-//W3C//DTD SVG 1.1//EN" "http://www.w3.org/Graphics/SVG/1.1/DTD/svg11.dtd"><svg t="1755873038941" class="icon" viewBox="0 0 1204 1024" version="1.1" xmlns="http://www.w3.org/2000/svg" p-id="1486" xmlns:xlink="http://www.w3.org/1999/xlink" width="235.15625" height="200"><path d="M216.407605 116.889611A60.230334 60.230334 0 0 1 278.203927 58.466187h648.680697a60.230334 60.230334 0 0 1 61.736093 58.423424l46.317127 292.719424h59.62803l-44.148835-292.719424A120.460668 120.460668 0 0 0 926.884624 0.042764H278.203927a120.460668 120.460668 0 0 0-123.532414 116.846847L110.522678 409.609035h59.5678z m61.736092 182.497912a45.353441 45.353441 0 0 0 46.317127 43.968144h555.986213a45.353441 45.353441 0 0 0 46.377357-43.968144c0-24.092134-20.779465-15.057583-46.377357-15.057583H324.460824c-25.537662 0-46.317127-9.03455-46.317127 15.057583z m571.405179-102.391567a45.353441 45.353441 0 0 0 46.377357-43.968144c0-24.092134-20.779465-14.45528-46.377357-14.45528h-493.888739c-25.537662 0-46.317127-9.636853-46.317127 14.45528a45.353441 45.353441 0 0 0 46.317127 43.968144h493.888739z m231.706094 271.036503h-957.66231A120.460668 120.460668 0 0 0 0.060245 584.879306l30.837931 322.232287A120.460668 120.460668 0 0 0 154.490822 1023.958441h895.745526a120.460668 120.460668 0 0 0 123.532415-116.846848l30.898162-322.232287a120.460668 120.460668 0 0 0-123.411955-116.846847z m-308.921383 336.687566a45.293211 45.293211 0 0 1-46.256896 43.968144h-246.944369a44.028374 44.028374 0 1 1 0-87.936287h246.944369a44.931829 44.931829 0 0 1 46.256896 43.968143z" fill="#1296db" p-id="1487"></path></svg>